<?xml version="1.0" encoding="UTF-8" standalone="no"?>
<!-- Created with Inkscape (http://www.inkscape.org/) -->

<svg
   width="73.854065mm"
   height="29.685959mm"
   viewBox="0 0 73.854065 29.685959"
   version="1.1"
   id="svg1"
   inkscape:version="1.3.1 (9b9bdc1480, 2023-11-25, custom)"
   sodipodi:docname="RiscViO_logoV0"
   xmlns:inkscape="http://www.inkscape.org/namespaces/inkscape"
   xmlns:sodipodi="http://sodipodi.sourceforge.net/DTD/sodipodi-0.dtd"
   xmlns="http://www.w3.org/2000/svg"
   xmlns:svg="http://www.w3.org/2000/svg">
  <sodipodi:namedview
     id="namedview1"
     pagecolor="#ffffff"
     bordercolor="#000000"
     borderopacity="0.25"
     inkscape:showpageshadow="2"
     inkscape:pageopacity="0.0"
     inkscape:pagecheckerboard="0"
     inkscape:deskcolor="#d1d1d1"
     inkscape:document-units="mm"
     inkscape:zoom="2.0668408"
     inkscape:cx="127.48926"
     inkscape:cy="5.5640473"
     inkscape:window-width="1850"
     inkscape:window-height="1025"
     inkscape:window-x="70"
     inkscape:window-y="1107"
     inkscape:window-maximized="1"
     inkscape:current-layer="layer1" />
  <defs
     id="defs1" />
  <g
     inkscape:label="Ebene 1"
     inkscape:groupmode="layer"
     id="layer1"
     transform="translate(-11.138875,-14.972254)">
    <path
       d="m 18.921287,21.710935 v 3.273776 h -1.91911 V 22.14838 l -0.846666,-0.945444 h -3.07622 v 3.781775 h -1.91911 v -9.87777 h 6.194773 l 1.509888,1.523998 v 2.991554 l -0.959555,0.973666 z m -5.841996,-2.088442 h 3.400775 l 0.493889,-0.493889 v -1.91911 l -0.493889,-0.493888 h -3.400775 z m 7.676427,-4.515552 h 1.91911 v 9.87777 h -1.91911 z m 3.612429,8.353771 v -1.41111 h 1.890887 v 0.832555 l 0.465667,0.465666 h 2.920997 l 0.479778,-0.479777 V 21.231158 L 29.65981,20.765492 h -3.739442 l -1.523999,-1.523999 v -2.610554 l 1.523999,-1.523998 h 4.459108 l 1.523998,1.523998 v 1.425221 h -1.890887 v -0.846666 l -0.465666,-0.465666 h -2.793998 l -0.465666,0.465666 v 1.453444 l 0.465666,0.465666 h 3.739441 l 1.523999,1.523999 v 2.779887 l -1.552221,1.552221 h -4.571996 z m 9.059314,-0.09878 v -6.632217 l 1.622776,-1.622776 h 4.825996 l 1.594555,1.594554 v 1.509888 h -1.91911 V 17.40705 l -0.663222,-0.663222 h -2.82222 l -0.719666,0.719666 v 5.164663 l 0.719666,0.719666 h 2.82222 l 0.663222,-0.663222 v -0.804332 h 1.91911 v 1.509887 l -1.594555,1.594555 h -4.825996 z"
       id="text1"
       style="font-size:14.1111px;font-family:'Chakra Petch';-inkscape-font-specification:'Chakra Petch';fill:#003262;stroke-width:0.264583"
       aria-label="RISC" />
    <path
       d="m 42.911311,20.747887 h 4.967107 v 1.608665 h -4.967107 z m 5.178737,-5.446885 h 1.975554 l 2.455332,7.591772 h 0.02822 l 2.455332,-7.591772 h 1.975554 l -3.513664,9.87777 h -1.862666 z m 9.383867,1.382888 v -0.903111 l 0.649111,-0.64911 h 0.987777 l 0.64911,0.64911 v 0.903111 l -0.64911,0.64911 h -0.987777 z m 0.211666,1.467554 h 1.862666 v 7.027328 h -1.862666 z"
       id="text2"
       style="font-weight:bold;font-size:14.1111px;font-family:'Chakra Petch';-inkscape-font-specification:'Chakra Petch Bold';fill:#fdb515;stroke-width:0.264583"
       aria-label="-Vi" />
    <path
       d="M 68.807209,36.776089 V 18.349787 l 4.508564,-4.508563 h 14.113763 l 4.508564,4.508563 v 18.426302 l -4.508564,4.508564 H 73.315773 Z m 15.799575,-0.0392 1.999449,-1.999449 V 20.388442 l -1.999449,-1.99945 h -8.468259 l -1.999449,1.99945 v 14.348993 l 1.999449,1.999449 z"
       id="text3"
       style="font-weight:bold;font-size:39.2049px;font-family:'Chakra Petch';-inkscape-font-specification:'Chakra Petch Bold';fill:#fdb515;stroke-width:0.408384"
       transform="scale(0.92445828,1.0817146)"
       aria-label="O" />
    <path
       id="rect4"
       style="fill:#fdb515;stroke-width:0.264583"
       d="m 46.528206,33.687805 h 0.140524 v 0.437973 h -0.140524 z" />
    <path
       id="rect5"
       style="fill:#003262;stroke-width:0.251949"
       d="m 15.982872,27.551088 h 7.3 v 11.673941 h -7.3 z" />
    <path
       id="rect5-8"
       style="fill:#003262;stroke-width:0.225297"
       d="m 24.866159,27.465366 h 7.300001 v 9.334788 h -7.300001 z" />
    <path
       id="rect5-6"
       style="fill:#003262;stroke-width:0.266116"
       d="M 33.741489,27.545877 H 41.04149 V 40.569639 H 33.741489 Z" />
    <path
       id="rect5-8-3"
       style="fill:#003262;stroke-width:0.203973"
       d="m 42.87624,27.487543 h 7.3 v 7.651399 h -7.3 z" />
    <path
       id="rect3"
       style="fill:#fdb515;stroke-width:0.278991"
       d="m 11.138875,27.210415 h 54.036179 v 4.648301 H 11.138875 Z" />
  </g>
</svg>
