<?xml version="1.0" encoding="UTF-8" standalone="no"?>
<!-- Created with Inkscape (http://www.inkscape.org/) -->

<svg
   width="75.426048mm"
   height="30.609606mm"
   viewBox="0 0 75.426048 30.609606"
   version="1.1"
   id="svg1"
   xmlns="http://www.w3.org/2000/svg"
   xmlns:svg="http://www.w3.org/2000/svg">
  <defs
     id="defs1">
    <marker
       style="overflow:visible"
       id="RoundedArrow"
       refX="0"
       refY="0"
       orient="auto-start-reverse"
       markerWidth="1"
       markerHeight="1"
       viewBox="0 0 1 1"
       preserveAspectRatio="xMidYMid">
      <path
         transform="scale(0.7)"
         d="m -0.21114562,-4.1055728 6.42229122,3.21114561 a 1,1 90 0 1 0,1.78885438 L -0.21114562,4.1055728 A 1.236068,1.236068 31.717474 0 1 -2,3 v -6 a 1.236068,1.236068 148.28253 0 1 1.78885438,-1.1055728 z"
         style="fill:context-stroke;fill-rule:evenodd;stroke:none"
         id="path8" />
    </marker>
    <marker
       style="overflow:visible"
       id="Dot"
       refX="0"
       refY="0"
       orient="auto"
       markerWidth="1"
       markerHeight="1"
       viewBox="0 0 1 1"
       preserveAspectRatio="xMidYMid">
      <path
         transform="scale(0.5)"
         style="fill:context-stroke;fill-rule:evenodd;stroke:none"
         d="M 5,0 C 5,2.76 2.76,5 0,5 -2.76,5 -5,2.76 -5,0 c 0,-2.76 2.3,-5 5,-5 2.76,0 5,2.24 5,5 z"
         id="path17" />
    </marker>
  </defs>
  <g
     id="layer1"
     transform="translate(-9.5668887,-15.106941)">
    <path
       d="m 18.921287,21.710935 v 3.273776 h -1.91911 V 22.14838 l -0.846666,-0.945444 h -3.07622 v 3.781775 h -1.91911 v -9.87777 h 6.194773 l 1.509888,1.523998 v 2.991554 l -0.959555,0.973666 z m -5.841996,-2.088442 h 3.400775 l 0.493889,-0.493889 v -1.91911 l -0.493889,-0.493888 h -3.400775 z m 7.676427,-4.515552 h 1.91911 v 9.87777 h -1.91911 z m 3.612429,8.353771 v -1.41111 h 1.890887 v 0.832555 l 0.465667,0.465666 h 2.920997 l 0.479778,-0.479777 V 21.231158 L 29.65981,20.765492 h -3.739442 l -1.523999,-1.523999 v -2.610554 l 1.523999,-1.523998 h 4.459108 l 1.523998,1.523998 v 1.425221 h -1.890887 v -0.846666 l -0.465666,-0.465666 h -2.793998 l -0.465666,0.465666 v 1.453444 l 0.465666,0.465666 h 3.739441 l 1.523999,1.523999 v 2.779887 l -1.552221,1.552221 h -4.571996 z m 9.059314,-0.09878 v -6.632217 l 1.622776,-1.622776 h 4.825996 l 1.594555,1.594554 v 1.509888 h -1.91911 V 17.40705 l -0.663222,-0.663222 h -2.82222 l -0.719666,0.719666 v 5.164663 l 0.719666,0.719666 h 2.82222 l 0.663222,-0.663222 v -0.804332 h 1.91911 v 1.509887 l -1.594555,1.594555 h -4.825996 z"
       id="text1"
       style="font-size:14.1111px;font-family:'Chakra Petch';-inkscape-font-specification:'Chakra Petch';fill:#003262;stroke-width:0.264583"
       aria-label="RISC" />
    <path
       d="m 42.911311,20.747887 h 4.967107 v 1.608665 h -4.967107 z m 5.178737,-5.446885 h 1.975554 l 2.455332,7.591772 h 0.02822 l 2.455332,-7.591772 h 1.975554 l -3.513664,9.87777 h -1.862666 z m 9.383867,1.382888 v -0.903111 l 0.649111,-0.64911 h 0.987777 l 0.64911,0.64911 v 0.903111 l -0.64911,0.64911 h -0.987777 z m 0.211666,1.467554 h 1.862666 v 7.027328 h -1.862666 z"
       id="text2"
       style="font-weight:bold;font-size:14.1111px;font-family:'Chakra Petch';-inkscape-font-specification:'Chakra Petch Bold';fill:#fdb515;stroke-width:0.264583"
       aria-label="-Vi" />
    <path
       d="M 68.807209,37.754475 V 19.328173 l 4.508564,-4.508564 h 14.113763 l 4.508564,4.508564 v 18.426302 l -4.508564,4.508564 H 73.315773 Z m 15.799575,-0.03921 1.999449,-1.999449 V 21.366828 l -1.999449,-1.99945 h -8.468259 l -1.999449,1.99945 v 14.348993 l 1.999449,1.999449 z"
       id="text3"
       style="font-weight:bold;font-size:39.2049px;font-family:'Chakra Petch';-inkscape-font-specification:'Chakra Petch Bold';fill:#fdb515;stroke-width:0.408384"
       transform="scale(0.92445827,1.0817146)"
       aria-label="O" />
    <path
       id="rect4"
       style="fill:#fdb515;stroke-width:0.264583"
       d="m 46.528206,33.687805 h 0.140524 v 0.437973 h -0.140524 z" />
    <path
       style="fill:#ffffff;stroke:#003262;stroke-width:1.586;stroke-linejoin:round;stroke-dasharray:none;stroke-opacity:1;marker-start:url(#Dot);marker-end:url(#RoundedArrow)"
       d="M 74.271651,33.661733 C 18.176317,33.592031 17.79908,33.586693 17.79908,33.586693"
       id="path1" />
  </g>
</svg>
