<?xml version="1.0" encoding="UTF-8" standalone="no"?>
<!-- Created with Inkscape (http://www.inkscape.org/) -->

<svg
   width="73.819328mm"
   height="35.911713mm"
   viewBox="0 0 73.819328 35.911713"
   version="1.1"
   id="svg1"
   inkscape:version="1.3.1 (9b9bdc1480, 2023-11-25, custom)"
   sodipodi:docname="RiscViO_logo_alt.svg"
   xmlns:inkscape="http://www.inkscape.org/namespaces/inkscape"
   xmlns:sodipodi="http://sodipodi.sourceforge.net/DTD/sodipodi-0.dtd"
   xmlns="http://www.w3.org/2000/svg"
   xmlns:svg="http://www.w3.org/2000/svg">
  <sodipodi:namedview
     id="namedview1"
     pagecolor="#ffffff"
     bordercolor="#000000"
     borderopacity="0.25"
     inkscape:showpageshadow="2"
     inkscape:pageopacity="0.0"
     inkscape:pagecheckerboard="0"
     inkscape:deskcolor="#d1d1d1"
     inkscape:document-units="mm"
     inkscape:zoom="1.4614771"
     inkscape:cx="5.8160335"
     inkscape:cy="129.66333"
     inkscape:window-width="1850"
     inkscape:window-height="1025"
     inkscape:window-x="70"
     inkscape:window-y="1107"
     inkscape:window-maximized="1"
     inkscape:current-layer="layer1">
    <sodipodi:guide
       position="-0.091534603,205.88451"
       orientation="0,755.90551"
       id="guide6"
       inkscape:locked="false" />
    <sodipodi:guide
       position="199.90847,205.88451"
       orientation="759.68504,0"
       id="guide7"
       inkscape:locked="false" />
    <sodipodi:guide
       position="199.90847,4.884511"
       orientation="0,-755.90551"
       id="guide8"
       inkscape:locked="false" />
    <sodipodi:guide
       position="-0.091534603,4.884511"
       orientation="-759.68504,0"
       id="guide9"
       inkscape:locked="false" />
  </sodipodi:namedview>
  <defs
     id="defs1">
    <marker
       style="overflow:visible"
       id="marker14"
       refX="0"
       refY="0"
       orient="auto-start-reverse"
       inkscape:stockid="Rounded arrow"
       markerWidth="1"
       markerHeight="1"
       viewBox="0 0 1 1"
       inkscape:isstock="true"
       inkscape:collect="always"
       preserveAspectRatio="xMidYMid">
      <path
         transform="scale(0.7)"
         d="m -0.21114562,-4.1055728 6.42229122,3.21114561 a 1,1 90 0 1 0,1.78885438 L -0.21114562,4.1055728 A 1.236068,1.236068 31.717474 0 1 -2,3 v -6 a 1.236068,1.236068 148.28253 0 1 1.78885438,-1.1055728 z"
         style="fill:context-stroke;fill-rule:evenodd;stroke:none"
         id="path14" />
    </marker>
    <marker
       style="overflow:visible"
       id="marker13"
       refX="0"
       refY="0"
       orient="auto"
       inkscape:stockid="Dot"
       markerWidth="1"
       markerHeight="1"
       viewBox="0 0 1 1"
       inkscape:isstock="true"
       inkscape:collect="always"
       preserveAspectRatio="xMidYMid">
      <path
         transform="scale(0.5)"
         style="fill:context-stroke;fill-rule:evenodd;stroke:none"
         d="M 5,0 C 5,2.76 2.76,5 0,5 -2.76,5 -5,2.76 -5,0 c 0,-2.76 2.3,-5 5,-5 2.76,0 5,2.24 5,5 z"
         sodipodi:nodetypes="sssss"
         id="path13" />
    </marker>
    <marker
       style="overflow:visible"
       id="marker12"
       refX="0"
       refY="0"
       orient="auto-start-reverse"
       inkscape:stockid="Rounded arrow"
       markerWidth="1"
       markerHeight="1"
       viewBox="0 0 1 1"
       inkscape:isstock="true"
       inkscape:collect="always"
       preserveAspectRatio="xMidYMid">
      <path
         transform="scale(0.7)"
         d="m -0.21114562,-4.1055728 6.42229122,3.21114561 a 1,1 90 0 1 0,1.78885438 L -0.21114562,4.1055728 A 1.236068,1.236068 31.717474 0 1 -2,3 v -6 a 1.236068,1.236068 148.28253 0 1 1.78885438,-1.1055728 z"
         style="fill:context-stroke;fill-rule:evenodd;stroke:none"
         id="path12" />
    </marker>
    <marker
       style="overflow:visible"
       id="marker11"
       refX="0"
       refY="0"
       orient="auto"
       inkscape:stockid="Dot"
       markerWidth="1"
       markerHeight="1"
       viewBox="0 0 1 1"
       inkscape:isstock="true"
       inkscape:collect="always"
       preserveAspectRatio="xMidYMid">
      <path
         transform="scale(0.5)"
         style="fill:context-stroke;fill-rule:evenodd;stroke:none"
         d="M 5,0 C 5,2.76 2.76,5 0,5 -2.76,5 -5,2.76 -5,0 c 0,-2.76 2.3,-5 5,-5 2.76,0 5,2.24 5,5 z"
         sodipodi:nodetypes="sssss"
         id="path11" />
    </marker>
    <inkscape:path-effect
       effect="fillet_chamfer"
       id="path-effect6"
       is_visible="true"
       lpeversion="1"
       nodesatellites_param="F,0,0,1,0,0,0,1 @ F,0,0,1,0,0,0,1 @ F,0,0,1,0,0,0,1 @ F,0,0,1,0,0,0,1 @ F,0,0,1,0,0,0,1 @ F,0,0,1,0,0,0,1 @ F,0,0,1,0,0,0,1 @ F,0,0,1,0,0,0,1"
       radius="0"
       unit="px"
       method="auto"
       mode="F"
       chamfer_steps="1"
       flexible="false"
       use_knot_distance="true"
       apply_no_radius="true"
       apply_with_radius="true"
       only_selected="false"
       hide_knots="false" />
    <inkscape:path-effect
       effect="fillet_chamfer"
       id="path-effect5"
       is_visible="true"
       lpeversion="1"
       nodesatellites_param="F,0,0,1,0,0,0,1 @ F,0,0,1,0,0,0,1 @ F,0,0,1,0,0,0,1 @ F,0,0,1,0,0,0,1 @ F,0,0,1,0,0,0,1 @ F,0,0,1,0,0,0,1 @ F,0,0,1,0,0,0,1 @ F,0,0,1,0,0,0,1"
       radius="0"
       unit="px"
       method="auto"
       mode="F"
       chamfer_steps="1"
       flexible="false"
       use_knot_distance="true"
       apply_no_radius="true"
       apply_with_radius="true"
       only_selected="false"
       hide_knots="false" />
    <marker
       style="overflow:visible"
       id="Dot"
       refX="0"
       refY="0"
       orient="auto"
       inkscape:stockid="Dot"
       markerWidth="1"
       markerHeight="1"
       viewBox="0 0 1 1"
       inkscape:isstock="true"
       inkscape:collect="always"
       preserveAspectRatio="xMidYMid">
      <path
         transform="scale(0.5)"
         style="fill:context-stroke;fill-rule:evenodd;stroke:none"
         d="M 5,0 C 5,2.76 2.76,5 0,5 -2.76,5 -5,2.76 -5,0 c 0,-2.76 2.3,-5 5,-5 2.76,0 5,2.24 5,5 z"
         sodipodi:nodetypes="sssss"
         id="path17" />
    </marker>
    <marker
       style="overflow:visible"
       id="RoundedArrow"
       refX="0"
       refY="0"
       orient="auto-start-reverse"
       inkscape:stockid="Rounded arrow"
       markerWidth="1"
       markerHeight="1"
       viewBox="0 0 1 1"
       inkscape:isstock="true"
       inkscape:collect="always"
       preserveAspectRatio="xMidYMid">
      <path
         transform="scale(0.7)"
         d="m -0.21114562,-4.1055728 6.42229122,3.21114561 a 1,1 90 0 1 0,1.78885438 L -0.21114562,4.1055728 A 1.236068,1.236068 31.717474 0 1 -2,3 v -6 a 1.236068,1.236068 148.28253 0 1 1.78885438,-1.1055728 z"
         style="fill:context-stroke;fill-rule:evenodd;stroke:none"
         id="path8" />
    </marker>
    <inkscape:path-effect
       effect="fillet_chamfer"
       id="path-effect2"
       is_visible="true"
       lpeversion="1"
       nodesatellites_param="F,0,0,1,0,0,0,1 @ F,0,0,1,0,0,0,1 @ F,0,0,1,0,0,0,1 @ F,0,0,1,0,0,0,1 @ F,0,0,1,0,0,0,1 @ F,0,0,1,0,0,0,1 @ F,0,0,1,0,0,0,1 @ F,0,0,1,0,0,0,1"
       radius="0"
       unit="px"
       method="auto"
       mode="F"
       chamfer_steps="1"
       flexible="false"
       use_knot_distance="true"
       apply_no_radius="true"
       apply_with_radius="true"
       only_selected="false"
       hide_knots="false" />
    <inkscape:path-effect
       effect="fillet_chamfer"
       id="path-effect1"
       is_visible="true"
       lpeversion="1"
       nodesatellites_param="F,0,0,1,0,0,0,1 @ F,0,0,1,0,0,0,1 @ F,0,0,1,0,0,0,1 @ F,0,0,1,0,0,0,1"
       radius="0"
       unit="px"
       method="auto"
       mode="F"
       chamfer_steps="1"
       flexible="false"
       use_knot_distance="true"
       apply_no_radius="true"
       apply_with_radius="true"
       only_selected="false"
       hide_knots="false" />
  </defs>
  <g
     inkscape:label="Ebene 1"
     inkscape:groupmode="layer"
     id="layer1"
     transform="translate(-9.6584233,-19.991452)">
    <path
       style="fill:#ffffff;stroke:#444444;stroke-width:0.865;stroke-linejoin:round;stroke-dasharray:none;stroke-opacity:1"
       id="rect6"
       width="54.037205"
       height="13.115779"
       x="10.090923"
       y="20.511946"
       inkscape:path-effect="#path-effect6"
       sodipodi:type="rect"
       d="m 12.220193,20.511946 h 49.778665 c 1.179616,0 2.12927,0.949654 2.12927,2.12927 v 8.857239 c 0,1.179615 -0.949654,2.12927 -2.12927,2.12927 H 12.220193 c -1.179615,0 -2.12927,-0.949655 -2.12927,-2.12927 v -8.857239 c 0,-1.179616 0.949655,-2.12927 2.12927,-2.12927 z"
       ry="2.1292698" />
    <rect
       style="fill:#ffffff;stroke:#444444;stroke-width:0.865;stroke-linejoin:round;stroke-dasharray:none;stroke-opacity:1"
       id="rect5"
       width="14.73768"
       height="13.318495"
       x="68.307571"
       y="20.423952"
       ry="2.867034" />
    <path
       d="m 19.979621,28.590106 v 3.273776 h -1.91911 v -2.836331 l -0.846666,-0.945444 h -3.07622 v 3.781775 h -1.91911 v -9.87777 h 6.194773 l 1.509888,1.523998 v 2.991554 L 18.963621,27.47533 Z M 14.137625,26.501664 H 17.5384 l 0.493889,-0.493889 v -1.91911 L 17.5384,23.594777 h -3.400775 z m 7.676427,-4.515552 h 1.91911 v 9.87777 h -1.91911 z m 3.612429,8.353771 v -1.41111 h 1.890887 v 0.832555 l 0.465667,0.465666 h 2.920997 L 31.18381,29.747217 V 28.110329 L 30.718144,27.644663 H 26.978702 L 25.454703,26.120664 V 23.51011 l 1.523999,-1.523998 h 4.459108 l 1.523998,1.523998 v 1.425221 h -1.890887 v -0.846666 l -0.465666,-0.465666 h -2.793998 l -0.465666,0.465666 v 1.453444 l 0.465666,0.465666 h 3.739441 l 1.523999,1.523999 v 2.779887 l -1.552221,1.552221 H 26.95048 Z m 9.059314,-0.09878 v -6.632217 l 1.622776,-1.622776 h 4.825996 l 1.594555,1.594554 v 1.509888 h -1.91911 V 24.286221 L 39.94679,23.622999 h -2.82222 l -0.719666,0.719666 v 5.164663 l 0.719666,0.719666 h 2.82222 l 0.663222,-0.663222 V 28.75944 h 1.91911 v 1.509887 l -1.594555,1.594555 h -4.825996 z"
       id="text1"
       style="font-size:14.1111px;font-family:'Chakra Petch';-inkscape-font-specification:'Chakra Petch';fill:#003262;stroke-width:0.264583"
       aria-label="RISC" />
    <path
       d="m 44.672843,27.653623 h 4.967107 v 1.608665 h -4.967107 z m 5.178737,-5.446885 h 1.975554 l 2.455332,7.591772 h 0.02822 l 2.455332,-7.591772 h 1.975554 l -3.513664,9.87777 h -1.862666 z m 9.383867,1.382888 v -0.903111 l 0.649111,-0.64911 h 0.987777 l 0.64911,0.64911 v 0.903111 l -0.64911,0.64911 h -0.987777 z m 0.211666,1.467554 h 1.862666 v 7.027328 h -1.862666 z"
       id="text2"
       style="font-weight:bold;font-size:14.1111px;font-family:'Chakra Petch';-inkscape-font-specification:'Chakra Petch Bold';fill:#fdb515;stroke-width:0.264583"
       aria-label="-Vi" />
    <path
       d="m 71.139061,30.397123 v -6.734036 l 1.747536,-1.64769 h 5.470547 l 1.747535,1.64769 v 6.734036 l -1.747535,1.647689 h -5.470547 z m 6.123973,-0.01433 0.774993,-0.730714 v -5.24395 l -0.774993,-0.730715 h -3.282329 l -0.774993,0.730715 v 5.243952 l 0.774993,0.730714 z"
       id="text3"
       style="font-weight:bold;font-size:39.2049px;font-family:'Chakra Petch';-inkscape-font-specification:'Chakra Petch Bold';fill:#fdb515;stroke-width:0.153703"
       aria-label="O" />
    <path
       id="rect4"
       style="fill:#fdb515;stroke-width:0.264583"
       d="m 58.816785,50.774985 h 0.140524 v 0.437973 h -0.140524 z" />
    <path
       style="fill:#ffffff;stroke:#444444;stroke-width:0.828;stroke-linejoin:round;stroke-dasharray:none;stroke-opacity:1"
       id="rect1"
       width="36.399265"
       height="8.9099789"
       x="26.183941"
       y="29.49201"
       inkscape:path-effect="#path-effect2"
       sodipodi:type="rect"
       d="m 28.844438,29.49201 h 31.078271 c 1.473915,0 2.660497,1.186582 2.660497,2.660498 v 3.588984 c 0,1.473915 -1.186582,2.660497 -2.660497,2.660497 H 28.844438 c -1.473915,0 -2.660497,-1.186582 -2.660497,-2.660497 v -3.588984 c 0,-1.473916 1.186582,-2.660498 2.660497,-2.660498 z"
       ry="2.6604974"
       transform="translate(12.288573,17.087174)" />
    <path
       style="fill:#ffffff;stroke:#000000;stroke-width:0.886;stroke-linejoin:round;stroke-dasharray:none;stroke-opacity:1;marker-start:url(#Dot);marker-end:url(#RoundedArrow)"
       d="m 16.320401,50.74697 18.78741,0.217626"
       id="path2"
       sodipodi:nodetypes="cc" />
    <path
       style="fill:#ffffff;stroke:#000000;stroke-width:0.865;stroke-linejoin:round;stroke-dasharray:none;stroke-opacity:1;marker-start:url(#marker13);marker-end:url(#marker14)"
       d="M 50.793017,51.01803 C 40.890643,38.312386 40.179278,37.754592 40.179278,37.754592 l -0.653367,-0.795823"
       id="path9"
       sodipodi:nodetypes="ccc" />
    <path
       style="fill:#ffffff;stroke:#000000;stroke-width:0.865;stroke-linejoin:round;stroke-dasharray:none;stroke-opacity:1;marker-start:url(#marker11);marker-end:url(#marker12)"
       d="M 63.475642,50.991978 73.487528,37.090895"
       id="path10"
       sodipodi:nodetypes="cc" />
  </g>
</svg>
